<svg width="40" height="40" viewBox="0 0 40 40" fill="none" xmlns="http://www.w3.org/2000/svg">
<path d="M33.75 7.5H6.25C5.55964 7.5 5 8.05964 5 8.75V31.25C5 31.9404 5.55964 32.5 6.25 32.5H33.75C34.4404 32.5 35 31.9404 35 31.25V8.75C35 8.05964 34.4404 7.5 33.75 7.5Z" stroke="#48A29B" stroke-width="2" stroke-linecap="round" stroke-linejoin="round"/>
<path d="M10.625 15C11.6605 15 12.5 14.1605 12.5 13.125C12.5 12.0895 11.6605 11.25 10.625 11.25C9.58947 11.25 8.75 12.0895 8.75 13.125C8.75 14.1605 9.58947 15 10.625 15Z" fill="#48A29B"/>
<path d="M16.875 15C17.9105 15 18.75 14.1605 18.75 13.125C18.75 12.0895 17.9105 11.25 16.875 11.25C15.8395 11.25 15 12.0895 15 13.125C15 14.1605 15.8395 15 16.875 15Z" fill="#48A29B"/>
</svg>
