<svg width="32" height="32" viewBox="0 0 32 32" fill="none" xmlns="http://www.w3.org/2000/svg">
<path d="M6.13699 12.529C5.84409 12.2361 5.84409 11.7613 6.13699 11.4684C6.42988 11.1755 6.90475 11.1755 7.19765 11.4684L6.13699 12.529ZM16.0007 21.332L16.531 21.8624C16.2381 22.1553 15.7632 22.1553 15.4703 21.8624L16.0007 21.332ZM24.8037 11.4684C25.0965 11.1755 25.5714 11.1755 25.8643 11.4684C26.1572 11.7613 26.1572 12.2361 25.8643 12.529L24.8037 11.4684ZM7.19765 11.4684L16.531 20.8017L15.4703 21.8624L6.13699 12.529L7.19765 11.4684ZM15.4703 20.8017L24.8037 11.4684L25.8643 12.529L16.531 21.8624L15.4703 20.8017Z" fill="white"/>
</svg>
