<svg width="40" height="40" viewBox="0 0 40 40" fill="none" xmlns="http://www.w3.org/2000/svg">
<path d="M12.5 20C12.5 17.5277 13.2331 15.111 14.6066 13.0554C15.9801 10.9998 17.9324 9.39761 20.2165 8.45151C22.5005 7.50542 25.0139 7.25787 27.4386 7.74019C29.8634 8.2225 32.0907 9.41301 33.8388 11.1612C35.587 12.9093 36.7775 15.1366 37.2598 17.5614C37.7421 19.9861 37.4946 22.4995 36.5485 24.7835C35.6024 27.0676 34.0002 29.0199 31.9446 30.3934C29.889 31.7669 27.4723 32.5 25 32.5H11.25C8.92936 32.5 6.70376 31.5781 5.06282 29.9372C3.42187 28.2962 2.5 26.0707 2.5 23.75C2.5 21.4294 3.42187 19.2038 5.06282 17.5628C6.70376 15.9219 8.92936 15 11.25 15C11.9821 14.9997 12.7114 15.0889 13.4219 15.2656" stroke="#48A29B" stroke-width="2" stroke-linecap="round" stroke-linejoin="round"/>
</svg>
