<svg width="64" height="64" viewBox="0 0 64 64" fill="none" xmlns="http://www.w3.org/2000/svg">
<path d="M64 0.557167L62.4941 11.5841C58.5788 11.282 55.7176 12.0876 53.9106 14.001C52.1035 15.9144 50.9992 18.4823 50.5976 21.7048C50.1961 24.9273 50.0957 28.4015 50.2965 32.1275H64V64H38.2494V26.0854C38.2494 16.8207 40.5584 9.87218 45.1765 5.23985C49.8949 0.607516 56.1694 -0.953375 64 0.557167ZM25.7506 0.557167L24.2447 11.5841C20.3294 11.282 17.4682 12.0876 15.6612 14.001C13.8541 15.9144 12.7498 18.4823 12.3482 21.7048C11.9467 24.9273 11.8463 28.4015 12.0471 32.1275H25.7506V64H0V26.0854C0 16.8207 2.30902 9.87218 6.92706 5.23985C11.6455 0.607516 17.92 -0.953375 25.7506 0.557167Z" fill="#1F1F1F"/>
</svg>
