<svg width="80" height="80" viewBox="0 0 80 80" fill="none" xmlns="http://www.w3.org/2000/svg">
<g filter="url(#filter0_d_261_1016)">
<path d="M62.5 70H17.5C16.837 70 16.2011 69.7366 15.7322 69.2678C15.2634 68.7989 15 68.163 15 67.5V12.5C15 11.837 15.2634 11.2011 15.7322 10.7322C16.2011 10.2634 16.837 10 17.5 10H47.5L65 27.5V67.5C65 68.163 64.7366 68.7989 64.2678 69.2678C63.7989 69.7366 63.163 70 62.5 70Z" stroke="#1F1F1F" stroke-width="2" stroke-linecap="round" stroke-linejoin="round"/>
<path d="M47.5 10V27.5H65" stroke="#1F1F1F" stroke-width="2" stroke-linecap="round" stroke-linejoin="round"/>
<path d="M30 42.5H50" stroke="#1F1F1F" stroke-width="2" stroke-linecap="round" stroke-linejoin="round"/>
<path d="M30 52.5H50" stroke="#1F1F1F" stroke-width="2" stroke-linecap="round" stroke-linejoin="round"/>
</g>
<defs>
<filter id="filter0_d_261_1016" x="10" y="9" width="60" height="70" filterUnits="userSpaceOnUse" color-interpolation-filters="sRGB">
<feFlood flood-opacity="0" result="BackgroundImageFix"/>
<feColorMatrix in="SourceAlpha" type="matrix" values="0 0 0 0 0 0 0 0 0 0 0 0 0 0 0 0 0 0 127 0" result="hardAlpha"/>
<feOffset dy="4"/>
<feGaussianBlur stdDeviation="2"/>
<feComposite in2="hardAlpha" operator="out"/>
<feColorMatrix type="matrix" values="0 0 0 0 0 0 0 0 0 0 0 0 0 0 0 0 0 0 0.25 0"/>
<feBlend mode="normal" in2="BackgroundImageFix" result="effect1_dropShadow_261_1016"/>
<feBlend mode="normal" in="SourceGraphic" in2="effect1_dropShadow_261_1016" result="shape"/>
</filter>
</defs>
</svg>
