<svg width="40" height="40" viewBox="0 0 40 40" fill="none" xmlns="http://www.w3.org/2000/svg">
<path d="M20 35C28.2843 35 35 28.2843 35 20C35 11.7157 28.2843 5 20 5C11.7157 5 5 11.7157 5 20C5 28.2843 11.7157 35 20 35Z" stroke="#48A29B" stroke-width="2" stroke-linecap="round" stroke-linejoin="round"/>
<path d="M7.75 28.6562L9.57813 27.5469C9.75943 27.435 9.90914 27.2787 10.0131 27.0928C10.117 26.9068 10.1716 26.6974 10.1719 26.4844L10.2031 20.8437C10.2056 20.6099 10.2762 20.3819 10.4062 20.1875L13.5 15.3281C13.5928 15.1846 13.7138 15.0613 13.8556 14.9657C13.9974 14.8702 14.1571 14.8044 14.325 14.7723C14.4929 14.7401 14.6656 14.7424 14.8326 14.7788C14.9997 14.8153 15.1576 14.8852 15.2969 14.9844L18.3594 17.2031C18.6236 17.3873 18.9452 17.4705 19.2656 17.4375L24.1875 16.7656C24.4861 16.7245 24.7589 16.5742 24.9531 16.3438L28.4219 12.3438C28.6276 12.0999 28.7336 11.7874 28.7188 11.4688L28.5469 7.67188" stroke="#48A29B" stroke-width="2" stroke-linecap="round" stroke-linejoin="round"/>
<path d="M29.2345 31.8307L27.547 30.1432C27.3909 29.9872 27.1971 29.8742 26.9845 29.8151L23.6251 28.9401C23.33 28.8593 23.0749 28.6732 22.9078 28.4169C22.7408 28.1606 22.6736 27.852 22.7188 27.5494L23.0782 25.0182C23.1139 24.8053 23.2028 24.6049 23.3366 24.4355C23.4705 24.2661 23.645 24.1333 23.8438 24.0494L28.5938 22.0651C28.8145 21.9731 29.0568 21.9462 29.2922 21.9878C29.5276 22.0293 29.7462 22.1375 29.922 22.2994L33.8126 25.8619" stroke="#48A29B" stroke-width="2" stroke-linecap="round" stroke-linejoin="round"/>
</svg>
