<svg width="510" height="268" viewBox="0 0 510 268" fill="none" xmlns="http://www.w3.org/2000/svg">
<path d="M0 10C0 4.47715 4.47715 0 10 0H230C235.523 0 240 4.47715 240 10V16H0V10Z" fill="#E0E0E0"/>
<path d="M0 156C0 150.477 4.47715 146 10 146H230C235.523 146 240 150.477 240 156V162H0V156Z" fill="#E0E0E0"/>
<path d="M270 10C270 4.47715 274.477 0 280 0H500C505.523 0 510 4.47715 510 10V16H270V10Z" fill="#E0E0E0"/>
<path d="M270 156C270 150.477 274.477 146 280 146H500C505.523 146 510 150.477 510 156V162H270V156Z" fill="#E0E0E0"/>
<path d="M0 16H240V112C240 117.523 235.523 122 230 122H10C4.47716 122 0 117.523 0 112V16Z" fill="#ECECEC"/>
<path d="M0 162H240V258C240 263.523 235.523 268 230 268H10C4.47716 268 0 263.523 0 258V162Z" fill="#ECECEC"/>
<path d="M270 16H510V112C510 117.523 505.523 122 500 122H280C274.477 122 270 117.523 270 112V16Z" fill="#ECECEC"/>
<path d="M270 162H510V258C510 263.523 505.523 268 500 268H280C274.477 268 270 263.523 270 258V162Z" fill="#ECECEC"/>
<path d="M81.1934 74.1055H74.6309V61.9082H72.4434V76H81.1934V74.1055ZM87.0137 66.9863C88.5566 66.9863 89.6016 68.0801 89.6504 69.7305H84.2695C84.3867 68.0996 85.4902 66.9863 87.0137 66.9863ZM89.6406 72.8945C89.3477 73.8223 88.3809 74.4082 87.1504 74.4082C85.4121 74.4082 84.2598 73.1973 84.2598 71.3613V71.2344H91.7695V70.4922C91.7695 67.2793 89.9336 65.2578 87.0234 65.2578C84.0547 65.2578 82.1211 67.416 82.1211 70.7363C82.1211 74.0566 84.0352 76.127 87.1113 76.127C89.4941 76.127 91.3594 74.7988 91.6621 72.8945H89.6406ZM97.1602 74.418C95.9395 74.418 95.1484 73.832 95.1484 72.9238C95.1484 71.9863 95.9004 71.4492 97.3457 71.3613L99.9238 71.1855V72.0156C99.9238 73.4121 98.7324 74.418 97.1602 74.418ZM96.5938 76.1074C98.0391 76.1074 99.3574 75.3848 99.9434 74.2324H99.9922V76H102.014V68.7246C102.014 66.625 100.344 65.2578 97.7559 65.2578C95.373 65.2578 93.5957 66.6445 93.5371 68.5195H95.5195C95.7051 67.6016 96.5449 67.0059 97.6973 67.0059C99.1133 67.0059 99.9238 67.6699 99.9238 68.8809V69.7012L97.0625 69.8672C94.4453 70.0332 93.0098 71.1074 93.0098 72.9629C93.0098 74.8574 94.4746 76.1074 96.5938 76.1074ZM108.137 76.1074C109.689 76.1074 110.9 75.4043 111.525 74.2031H111.564V76H113.615V61.2734H111.506V67.1523H111.457C110.852 65.9805 109.641 65.2871 108.117 65.2871C105.48 65.2871 103.664 67.4258 103.664 70.6875C103.664 73.9688 105.48 76.1074 108.137 76.1074ZM108.674 67.084C110.373 67.084 111.516 68.5391 111.516 70.6973C111.516 72.8652 110.373 74.3105 108.674 74.3105C106.955 74.3105 105.832 72.8945 105.832 70.6973C105.832 68.5098 106.965 67.084 108.674 67.084ZM120.275 66.9863C121.818 66.9863 122.863 68.0801 122.912 69.7305H117.531C117.648 68.0996 118.752 66.9863 120.275 66.9863ZM122.902 72.8945C122.609 73.8223 121.643 74.4082 120.412 74.4082C118.674 74.4082 117.521 73.1973 117.521 71.3613V71.2344H125.031V70.4922C125.031 67.2793 123.195 65.2578 120.285 65.2578C117.316 65.2578 115.383 67.416 115.383 70.7363C115.383 74.0566 117.297 76.127 120.373 76.127C122.756 76.127 124.621 74.7988 124.924 72.8945H122.902ZM126.74 76H128.859V69.6719C128.859 68.1777 129.738 67.2109 131.135 67.2109C131.555 67.2109 131.926 67.2695 132.102 67.3379V65.3555C131.936 65.3164 131.672 65.2871 131.359 65.2871C130.109 65.2871 129.133 66 128.801 67.1816H128.762V65.3945H126.74V76ZM133.283 68.4121C133.283 69.877 134.23 70.8535 136.145 71.3223L138.039 71.791C139.152 72.0742 139.572 72.4258 139.572 73.0996C139.572 73.959 138.742 74.5059 137.424 74.5059C136.076 74.5059 135.256 73.9492 135.09 72.9336H133C133.156 74.8477 134.846 76.127 137.316 76.127C139.885 76.127 141.682 74.8184 141.682 72.9238C141.682 71.3613 140.891 70.5898 138.752 70.0723L136.994 69.6523C135.871 69.3789 135.344 68.9395 135.344 68.2949C135.344 67.4551 136.145 66.8984 137.346 66.8984C138.557 66.8984 139.367 67.4844 139.455 68.4219H141.447C141.398 66.5762 139.719 65.2676 137.395 65.2676C134.953 65.2676 133.283 66.5469 133.283 68.4121ZM143.488 76H145.607V69.9258C145.607 68.2266 146.604 67.0938 148.254 67.0938C149.807 67.0938 150.598 68.0508 150.598 69.6328V76H152.717V69.2227C152.717 66.8301 151.32 65.2773 148.986 65.2773C147.365 65.2773 146.271 65.9316 145.637 67.1816H145.588V61.2734H143.488V76ZM154.924 76H157.043V65.3945H154.924V76ZM155.988 63.8809C156.672 63.8809 157.229 63.334 157.229 62.6602C157.229 61.9668 156.672 61.4395 155.988 61.4395C155.305 61.4395 154.748 61.9668 154.748 62.6602C154.748 63.334 155.305 63.8809 155.988 63.8809ZM164.768 65.2871C163.293 65.2871 161.984 66.0098 161.389 67.1523H161.34V65.3945H159.299V79.5156H161.418V74.2617H161.457C162.092 75.4336 163.293 76.1074 164.816 76.1074C167.482 76.1074 169.25 73.9785 169.25 70.6973C169.25 67.4062 167.473 65.2871 164.768 65.2871ZM164.23 74.3105C162.541 74.3105 161.408 72.8652 161.398 70.6973C161.408 68.5391 162.551 67.084 164.23 67.084C165.949 67.084 167.082 68.5098 167.082 70.6973C167.082 72.8945 165.949 74.3105 164.23 74.3105Z" fill="#48A29B"/>
<path d="M53.4082 207.908V222H58.457C62.6562 222 65.127 219.383 65.127 214.93C65.127 210.486 62.6562 207.908 58.457 207.908H53.4082ZM55.5957 209.793H58.252C61.2402 209.793 62.9004 211.629 62.9004 214.949C62.9004 218.279 61.2402 220.105 58.252 220.105H55.5957V209.793ZM67.0801 222H69.1992V211.395H67.0801V222ZM68.1445 209.881C68.8281 209.881 69.3848 209.334 69.3848 208.66C69.3848 207.967 68.8281 207.439 68.1445 207.439C67.4609 207.439 66.9043 207.967 66.9043 208.66C66.9043 209.334 67.4609 209.881 68.1445 209.881ZM80.459 211.395H78.2617L75.5469 219.91H75.498L72.793 211.395H70.5566L74.3848 222H76.6406L80.459 211.395ZM85.8496 212.986C87.3926 212.986 88.4375 214.08 88.4863 215.73H83.1055C83.2227 214.1 84.3262 212.986 85.8496 212.986ZM88.4766 218.895C88.1836 219.822 87.2168 220.408 85.9863 220.408C84.248 220.408 83.0957 219.197 83.0957 217.361V217.234H90.6055V216.492C90.6055 213.279 88.7695 211.258 85.8594 211.258C82.8906 211.258 80.957 213.416 80.957 216.736C80.957 220.057 82.8711 222.127 85.9473 222.127C88.3301 222.127 90.1953 220.799 90.498 218.895H88.4766ZM92.3145 222H94.4336V215.672C94.4336 214.178 95.3125 213.211 96.709 213.211C97.1289 213.211 97.5 213.27 97.6758 213.338V211.355C97.5098 211.316 97.2461 211.287 96.9336 211.287C95.6836 211.287 94.707 212 94.375 213.182H94.3359V211.395H92.3145V222ZM98.8574 214.412C98.8574 215.877 99.8047 216.854 101.719 217.322L103.613 217.791C104.727 218.074 105.146 218.426 105.146 219.1C105.146 219.959 104.316 220.506 102.998 220.506C101.65 220.506 100.83 219.949 100.664 218.934H98.5742C98.7305 220.848 100.42 222.127 102.891 222.127C105.459 222.127 107.256 220.818 107.256 218.924C107.256 217.361 106.465 216.59 104.326 216.072L102.568 215.652C101.445 215.379 100.918 214.939 100.918 214.295C100.918 213.455 101.719 212.898 102.92 212.898C104.131 212.898 104.941 213.484 105.029 214.422H107.021C106.973 212.576 105.293 211.268 102.969 211.268C100.527 211.268 98.8574 212.547 98.8574 214.412ZM113.389 212.986C114.932 212.986 115.977 214.08 116.025 215.73H110.645C110.762 214.1 111.865 212.986 113.389 212.986ZM116.016 218.895C115.723 219.822 114.756 220.408 113.525 220.408C111.787 220.408 110.635 219.197 110.635 217.361V217.234H118.145V216.492C118.145 213.279 116.309 211.258 113.398 211.258C110.43 211.258 108.496 213.416 108.496 216.736C108.496 220.057 110.41 222.127 113.486 222.127C115.869 222.127 117.734 220.799 118.037 218.895H116.016ZM130.625 222.234C133.867 222.234 136.074 220.525 136.611 217.615H134.434C133.994 219.314 132.598 220.32 130.635 220.32C128.047 220.32 126.406 218.24 126.406 214.949C126.406 211.688 128.066 209.588 130.625 209.588C132.539 209.588 134.043 210.77 134.434 212.576H136.602C136.23 209.637 133.818 207.674 130.625 207.674C126.689 207.674 124.17 210.486 124.17 214.949C124.17 219.441 126.67 222.234 130.625 222.234ZM147.412 211.395H145.293V217.508C145.293 219.188 144.326 220.291 142.744 220.291C141.211 220.291 140.439 219.422 140.439 217.791V211.395H138.32V218.191C138.32 220.623 139.727 222.117 142.041 222.117C143.662 222.117 144.736 221.443 145.352 220.184H145.391V222H147.412V211.395ZM149.668 222H151.787V207.273H149.668V222ZM154.688 209.012V211.395H153.223V213.064H154.688V219.207C154.688 221.258 155.508 222.068 157.627 222.068C158.086 222.068 158.584 222.02 158.818 221.961V220.291C158.682 220.311 158.32 220.34 158.096 220.34C157.207 220.34 156.797 219.91 156.797 218.992V213.064H158.828V211.395H156.797V209.012H154.688ZM169.658 211.395H167.539V217.508C167.539 219.188 166.572 220.291 164.99 220.291C163.457 220.291 162.686 219.422 162.686 217.791V211.395H160.566V218.191C160.566 220.623 161.973 222.117 164.287 222.117C165.908 222.117 166.982 221.443 167.598 220.184H167.637V222H169.658V211.395ZM171.826 222H173.945V215.672C173.945 214.178 174.824 213.211 176.221 213.211C176.641 213.211 177.012 213.27 177.188 213.338V211.355C177.021 211.316 176.758 211.287 176.445 211.287C175.195 211.287 174.219 212 173.887 213.182H173.848V211.395H171.826V222ZM182.51 212.986C184.053 212.986 185.098 214.08 185.146 215.73H179.766C179.883 214.1 180.986 212.986 182.51 212.986ZM185.137 218.895C184.844 219.822 183.877 220.408 182.646 220.408C180.908 220.408 179.756 219.197 179.756 217.361V217.234H187.266V216.492C187.266 213.279 185.43 211.258 182.52 211.258C179.551 211.258 177.617 213.416 177.617 216.736C177.617 220.057 179.531 222.127 182.607 222.127C184.99 222.127 186.855 220.799 187.158 218.895H185.137Z" fill="#48A29B"/>
<path d="M302.717 207.908V222H304.904V217.186H308.166C310.93 217.186 312.883 215.291 312.883 212.537C312.883 209.793 310.969 207.908 308.234 207.908H302.717ZM304.904 209.754H307.658C309.562 209.754 310.646 210.77 310.646 212.547C310.646 214.324 309.553 215.35 307.658 215.35H304.904V209.754ZM314.592 222H316.711V215.672C316.711 214.178 317.59 213.211 318.986 213.211C319.406 213.211 319.777 213.27 319.953 213.338V211.355C319.787 211.316 319.523 211.287 319.211 211.287C317.961 211.287 316.984 212 316.652 213.182H316.613V211.395H314.592V222ZM325.402 222.127C328.469 222.127 330.412 220.037 330.412 216.697C330.412 213.357 328.459 211.258 325.402 211.258C322.346 211.258 320.383 213.367 320.383 216.697C320.383 220.037 322.336 222.127 325.402 222.127ZM325.402 220.369C323.605 220.369 322.531 219.012 322.531 216.697C322.531 214.393 323.605 213.016 325.402 213.016C327.199 213.016 328.264 214.383 328.264 216.697C328.264 219.012 327.199 220.369 325.402 220.369ZM332.746 222H334.855V213.064H336.877V211.395H334.836V210.486C334.846 209.578 335.207 209.197 336.076 209.197C336.359 209.197 336.652 209.227 336.867 209.275V207.664C336.525 207.605 336.174 207.566 335.793 207.566C333.645 207.566 332.746 208.436 332.746 210.418V211.395H331.281V213.064H332.746V222ZM342.619 212.986C344.162 212.986 345.207 214.08 345.256 215.73H339.875C339.992 214.1 341.096 212.986 342.619 212.986ZM345.246 218.895C344.953 219.822 343.986 220.408 342.756 220.408C341.018 220.408 339.865 219.197 339.865 217.361V217.234H347.375V216.492C347.375 213.279 345.539 211.258 342.629 211.258C339.66 211.258 337.727 213.416 337.727 216.736C337.727 220.057 339.641 222.127 342.717 222.127C345.1 222.127 346.965 220.799 347.268 218.895H345.246ZM348.908 214.412C348.908 215.877 349.855 216.854 351.77 217.322L353.664 217.791C354.777 218.074 355.197 218.426 355.197 219.1C355.197 219.959 354.367 220.506 353.049 220.506C351.701 220.506 350.881 219.949 350.715 218.934H348.625C348.781 220.848 350.471 222.127 352.941 222.127C355.51 222.127 357.307 220.818 357.307 218.924C357.307 217.361 356.516 216.59 354.377 216.072L352.619 215.652C351.496 215.379 350.969 214.939 350.969 214.295C350.969 213.455 351.77 212.898 352.971 212.898C354.182 212.898 354.992 213.484 355.08 214.422H357.072C357.023 212.576 355.344 211.268 353.02 211.268C350.578 211.268 348.908 212.547 348.908 214.412ZM358.85 214.412C358.85 215.877 359.797 216.854 361.711 217.322L363.605 217.791C364.719 218.074 365.139 218.426 365.139 219.1C365.139 219.959 364.309 220.506 362.99 220.506C361.643 220.506 360.822 219.949 360.656 218.934H358.566C358.723 220.848 360.412 222.127 362.883 222.127C365.451 222.127 367.248 220.818 367.248 218.924C367.248 217.361 366.457 216.59 364.318 216.072L362.561 215.652C361.438 215.379 360.91 214.939 360.91 214.295C360.91 213.455 361.711 212.898 362.912 212.898C364.123 212.898 364.934 213.484 365.021 214.422H367.014C366.965 212.576 365.285 211.268 362.961 211.268C360.52 211.268 358.85 212.547 358.85 214.412ZM369.045 222H371.164V211.395H369.045V222ZM370.109 209.881C370.793 209.881 371.35 209.334 371.35 208.66C371.35 207.967 370.793 207.439 370.109 207.439C369.426 207.439 368.869 207.967 368.869 208.66C368.869 209.334 369.426 209.881 370.109 209.881ZM377.961 222.127C381.027 222.127 382.971 220.037 382.971 216.697C382.971 213.357 381.018 211.258 377.961 211.258C374.904 211.258 372.941 213.367 372.941 216.697C372.941 220.037 374.895 222.127 377.961 222.127ZM377.961 220.369C376.164 220.369 375.09 219.012 375.09 216.697C375.09 214.393 376.164 213.016 377.961 213.016C379.758 213.016 380.822 214.383 380.822 216.697C380.822 219.012 379.758 220.369 377.961 220.369ZM384.67 222H386.789V215.877C386.789 214.207 387.746 213.094 389.348 213.094C390.9 213.094 391.643 213.992 391.643 215.604V222H393.762V215.203C393.762 212.762 392.424 211.277 390.08 211.277C388.439 211.277 387.375 211.932 386.73 213.182H386.691V211.395H384.67V222ZM399.562 220.418C398.342 220.418 397.551 219.832 397.551 218.924C397.551 217.986 398.303 217.449 399.748 217.361L402.326 217.186V218.016C402.326 219.412 401.135 220.418 399.562 220.418ZM398.996 222.107C400.441 222.107 401.76 221.385 402.346 220.232H402.395V222H404.416V214.725C404.416 212.625 402.746 211.258 400.158 211.258C397.775 211.258 395.998 212.645 395.939 214.52H397.922C398.107 213.602 398.947 213.006 400.1 213.006C401.516 213.006 402.326 213.67 402.326 214.881V215.701L399.465 215.867C396.848 216.033 395.412 217.107 395.412 218.963C395.412 220.857 396.877 222.107 398.996 222.107ZM406.633 222H408.752V207.273H406.633V222ZM427.98 216.141V214.705H422.18V216.473H425.822V216.717C425.793 218.855 424.211 220.32 421.926 220.32C419.24 220.32 417.57 218.24 417.57 214.871C417.57 211.561 419.191 209.588 421.887 209.588C423.723 209.588 425.1 210.594 425.627 212.342H427.873C427.385 209.529 425.012 207.674 421.877 207.674C417.863 207.674 415.334 210.447 415.334 214.891C415.334 219.412 417.873 222.234 421.906 222.234C425.725 222.234 427.98 219.959 427.98 216.141ZM429.904 222H432.023V215.672C432.023 214.178 432.902 213.211 434.299 213.211C434.719 213.211 435.09 213.27 435.266 213.338V211.355C435.1 211.316 434.836 211.287 434.523 211.287C433.273 211.287 432.297 212 431.965 213.182H431.926V211.395H429.904V222ZM440.715 222.127C443.781 222.127 445.725 220.037 445.725 216.697C445.725 213.357 443.771 211.258 440.715 211.258C437.658 211.258 435.695 213.367 435.695 216.697C435.695 220.037 437.648 222.127 440.715 222.127ZM440.715 220.369C438.918 220.369 437.844 219.012 437.844 216.697C437.844 214.393 438.918 213.016 440.715 213.016C442.512 213.016 443.576 214.383 443.576 216.697C443.576 219.012 442.512 220.369 440.715 220.369ZM461.311 211.395H459.221L457.248 219.793H457.209L454.953 211.395H452.922L450.676 219.793H450.637L448.664 211.395H446.555L449.484 222H451.662L453.898 214.012H453.947L456.203 222H458.391L461.311 211.395ZM463.293 209.012V211.395H461.828V213.064H463.293V219.207C463.293 221.258 464.113 222.068 466.232 222.068C466.691 222.068 467.189 222.02 467.424 221.961V220.291C467.287 220.311 466.926 220.34 466.701 220.34C465.812 220.34 465.402 219.91 465.402 218.992V213.064H467.434V211.395H465.402V209.012H463.293ZM469.309 222H471.428V215.926C471.428 214.227 472.424 213.094 474.074 213.094C475.627 213.094 476.418 214.051 476.418 215.633V222H478.537V215.223C478.537 212.83 477.141 211.277 474.807 211.277C473.186 211.277 472.092 211.932 471.457 213.182H471.408V207.273H469.309V222Z" fill="#48A29B"/>
<path d="M331.74 72.0742C331.877 74.623 333.986 76.2344 337.111 76.2344C340.451 76.2344 342.551 74.584 342.551 71.9473C342.551 69.8867 341.35 68.7246 338.459 68.041L336.906 67.6602C335.09 67.2109 334.348 66.625 334.348 65.6289C334.348 64.3789 335.51 63.5195 337.209 63.5195C338.908 63.5195 340.07 64.3691 340.197 65.7754H342.326C342.258 63.3438 340.217 61.6738 337.238 61.6738C334.23 61.6738 332.111 63.3438 332.111 65.7754C332.111 67.7383 333.312 68.9492 335.9 69.5742L337.727 70.0137C339.553 70.4629 340.324 71.1172 340.324 72.2109C340.324 73.4707 339.045 74.3887 337.268 74.3887C335.412 74.3887 334.055 73.4707 333.898 72.0742H331.74ZM353.342 65.3945H351.223V71.5078C351.223 73.1875 350.256 74.291 348.674 74.291C347.141 74.291 346.369 73.4219 346.369 71.791V65.3945H344.25V72.1914C344.25 74.623 345.656 76.1172 347.971 76.1172C349.592 76.1172 350.666 75.4434 351.281 74.1836H351.32V76H353.342V65.3945ZM355.334 68.4121C355.334 69.877 356.281 70.8535 358.195 71.3223L360.09 71.791C361.203 72.0742 361.623 72.4258 361.623 73.0996C361.623 73.959 360.793 74.5059 359.475 74.5059C358.127 74.5059 357.307 73.9492 357.141 72.9336H355.051C355.207 74.8477 356.896 76.127 359.367 76.127C361.936 76.127 363.732 74.8184 363.732 72.9238C363.732 71.3613 362.941 70.5898 360.803 70.0723L359.045 69.6523C357.922 69.3789 357.395 68.9395 357.395 68.2949C357.395 67.4551 358.195 66.8984 359.396 66.8984C360.607 66.8984 361.418 67.4844 361.506 68.4219H363.498C363.449 66.5762 361.77 65.2676 359.445 65.2676C357.004 65.2676 355.334 66.5469 355.334 68.4121ZM366.086 63.0117V65.3945H364.621V67.0645H366.086V73.207C366.086 75.2578 366.906 76.0684 369.025 76.0684C369.484 76.0684 369.982 76.0195 370.217 75.9609V74.291C370.08 74.3105 369.719 74.3398 369.494 74.3398C368.605 74.3398 368.195 73.9102 368.195 72.9922V67.0645H370.227V65.3945H368.195V63.0117H366.086ZM375.617 74.418C374.396 74.418 373.605 73.832 373.605 72.9238C373.605 71.9863 374.357 71.4492 375.803 71.3613L378.381 71.1855V72.0156C378.381 73.4121 377.189 74.418 375.617 74.418ZM375.051 76.1074C376.496 76.1074 377.814 75.3848 378.4 74.2324H378.449V76H380.471V68.7246C380.471 66.625 378.801 65.2578 376.213 65.2578C373.83 65.2578 372.053 66.6445 371.994 68.5195H373.977C374.162 67.6016 375.002 67.0059 376.154 67.0059C377.57 67.0059 378.381 67.6699 378.381 68.8809V69.7012L375.52 69.8672C372.902 70.0332 371.467 71.1074 371.467 72.9629C371.467 74.8574 372.932 76.1074 375.051 76.1074ZM382.678 76H384.797V65.3945H382.678V76ZM383.742 63.8809C384.426 63.8809 384.982 63.334 384.982 62.6602C384.982 61.9668 384.426 61.4395 383.742 61.4395C383.059 61.4395 382.502 61.9668 382.502 62.6602C382.502 63.334 383.059 63.8809 383.742 63.8809ZM387.053 76H389.172V69.877C389.172 68.207 390.129 67.0938 391.73 67.0938C393.283 67.0938 394.025 67.9922 394.025 69.6035V76H396.145V69.2031C396.145 66.7617 394.807 65.2773 392.463 65.2773C390.822 65.2773 389.758 65.9316 389.113 67.1816H389.074V65.3945H387.053V76ZM401.945 74.418C400.725 74.418 399.934 73.832 399.934 72.9238C399.934 71.9863 400.686 71.4492 402.131 71.3613L404.709 71.1855V72.0156C404.709 73.4121 403.518 74.418 401.945 74.418ZM401.379 76.1074C402.824 76.1074 404.143 75.3848 404.729 74.2324H404.777V76H406.799V68.7246C406.799 66.625 405.129 65.2578 402.541 65.2578C400.158 65.2578 398.381 66.6445 398.322 68.5195H400.305C400.49 67.6016 401.33 67.0059 402.482 67.0059C403.898 67.0059 404.709 67.6699 404.709 68.8809V69.7012L401.848 69.8672C399.23 70.0332 397.795 71.1074 397.795 72.9629C397.795 74.8574 399.26 76.1074 401.379 76.1074ZM414.514 76.1074C417.209 76.1074 418.967 73.9883 418.967 70.6973C418.967 67.4062 417.209 65.2871 414.533 65.2871C413.029 65.2871 411.818 65.9609 411.174 67.1523H411.135V61.2734H409.016V76H411.057V74.2031H411.105C411.76 75.4238 412.971 76.1074 414.514 76.1074ZM413.977 67.084C415.686 67.084 416.799 68.5 416.799 70.6973C416.799 72.8945 415.686 74.3105 413.977 74.3105C412.268 74.3105 411.125 72.8555 411.125 70.6973C411.125 68.5488 412.268 67.084 413.977 67.084ZM420.744 76H422.863V65.3945H420.744V76ZM421.809 63.8809C422.492 63.8809 423.049 63.334 423.049 62.6602C423.049 61.9668 422.492 61.4395 421.809 61.4395C421.125 61.4395 420.568 61.9668 420.568 62.6602C420.568 63.334 421.125 63.8809 421.809 63.8809ZM425.207 76H427.326V61.2734H425.207V76ZM429.67 76H431.789V65.3945H429.67V76ZM430.734 63.8809C431.418 63.8809 431.975 63.334 431.975 62.6602C431.975 61.9668 431.418 61.4395 430.734 61.4395C430.051 61.4395 429.494 61.9668 429.494 62.6602C429.494 63.334 430.051 63.8809 430.734 63.8809ZM434.68 63.0117V65.3945H433.215V67.0645H434.68V73.207C434.68 75.2578 435.5 76.0684 437.619 76.0684C438.078 76.0684 438.576 76.0195 438.811 75.9609V74.291C438.674 74.3105 438.312 74.3398 438.088 74.3398C437.199 74.3398 436.789 73.9102 436.789 72.9922V67.0645H438.82V65.3945H436.789V63.0117H434.68ZM441.672 79.8574C443.84 79.8574 444.846 79.0371 445.754 76.4883L449.729 65.3945H447.502L444.777 74.0664H444.729L442.004 65.3945H439.729L443.576 76.0293L443.41 76.5762C443.049 77.6992 442.492 78.1289 441.486 78.1289C441.301 78.1289 440.969 78.1191 440.812 78.0801V79.7988C440.979 79.8281 441.496 79.8574 441.672 79.8574Z" fill="#48A29B"/>
</svg>
