<svg width="160" height="160" viewBox="0 0 160 160" fill="none" xmlns="http://www.w3.org/2000/svg">
<path d="M102.5 45C109.404 45 115 39.4036 115 32.5C115 25.5964 109.404 20 102.5 20C95.5964 20 90 25.5964 90 32.5C90 39.4036 95.5964 45 102.5 45Z" stroke="#1F1F1F" stroke-width="2" stroke-linecap="round" stroke-linejoin="round"/>
<path d="M5 125.005L50.6875 47.3171C51.1405 46.5803 51.7747 45.9719 52.5297 45.5499C53.2846 45.1278 54.1351 44.9062 55 44.9062C55.8649 44.9063 56.7154 45.1278 57.4703 45.5499C58.2253 45.9719 58.8595 46.5803 59.3125 47.3171L105 125.005H5Z" stroke="#1F1F1F" stroke-width="2" stroke-linecap="round" stroke-linejoin="round"/>
<path d="M31.5 80H78.5" stroke="#1F1F1F" stroke-width="2" stroke-linecap="round" stroke-linejoin="round"/>
<path d="M90.0625 99.6296L110.688 64.7546C111.141 64.0178 111.775 63.4094 112.53 62.9874C113.285 62.5653 114.135 62.3438 115 62.3438C115.865 62.3438 116.715 62.5653 117.47 62.9874C118.225 63.4094 118.859 64.0178 119.312 64.7546L155 125.005H105" stroke="#1F1F1F" stroke-width="2" stroke-linecap="round" stroke-linejoin="round"/>
</svg>
