<svg width="40" height="40" viewBox="0 0 40 40" fill="none" xmlns="http://www.w3.org/2000/svg">
<path d="M3.125 33.75H14.375C15.982 33.75 17.5529 33.2735 18.889 32.3807C20.2252 31.4879 21.2666 30.219 21.8815 28.7343C22.4965 27.2497 22.6574 25.616 22.3439 24.0399C22.0304 22.4638 21.2565 21.0161 20.1202 19.8798C18.9839 18.7435 17.5362 17.9696 15.9601 17.6561C14.384 17.3426 12.7503 17.5035 11.2657 18.1185C9.78105 18.7334 8.5121 19.7748 7.61931 21.111C6.72652 22.4471 6.25 24.018 6.25 25.625C6.25 31.25 3.125 33.75 3.125 33.75Z" stroke="#48A29B" stroke-width="2" stroke-linecap="round" stroke-linejoin="round"/>
<path d="M17.5625 18.1562C20.5625 14.1094 28.1875 4.84375 35.1562 4.84375C35.1562 11.8125 25.8906 19.4375 21.8438 22.4375" stroke="#48A29B" stroke-width="2" stroke-linecap="round" stroke-linejoin="round"/>
<path d="M20.7812 14.1562C22.8984 15.3511 24.6489 17.1016 25.8437 19.2188" stroke="#48A29B" stroke-width="2" stroke-linecap="round" stroke-linejoin="round"/>
</svg>
