<svg width="36" height="35" viewBox="0 0 36 35" fill="none" xmlns="http://www.w3.org/2000/svg">
<path d="M35.3754 13.2188C35.219 12.7265 34.9174 12.2931 34.5104 11.9752C34.1033 11.6574 33.6096 11.4699 33.0942 11.4375L23.8129 10.7969L20.3754 2.125C20.1877 1.64751 19.861 1.23735 19.4376 0.947631C19.0141 0.657913 18.5135 0.501973 18.0004 0.5C17.4874 0.501973 16.9867 0.657913 16.5633 0.947631C16.1398 1.23735 15.8131 1.64751 15.6254 2.125L12.1254 10.8438L2.90667 11.4375C2.39184 11.472 1.89921 11.6602 1.49251 11.9778C1.08581 12.2954 0.783754 12.7277 0.625422 13.2188C0.46283 13.7174 0.45333 14.2533 0.598148 14.7574C0.742966 15.2614 1.03546 15.7106 1.43792 16.0469L8.53167 22.0469L6.4223 30.3438C6.27636 30.905 6.30262 31.4972 6.49768 32.0434C6.69273 32.5896 7.04756 33.0644 7.51605 33.4062C7.97078 33.7326 8.51256 33.9159 9.07205 33.9326C9.63153 33.9493 10.1833 33.7987 10.6567 33.5L17.9848 28.8594H18.016L25.9067 33.8438C26.3114 34.1068 26.7833 34.2478 27.266 34.25C27.6602 34.2469 28.0484 34.1535 28.4008 33.9769C28.7531 33.8003 29.0604 33.5453 29.2988 33.2314C29.5372 32.9176 29.7005 32.5532 29.7761 32.1664C29.8516 31.7795 29.8375 31.3805 29.7348 31L27.5004 21.9219L34.5629 16.0469C34.9654 15.7106 35.2579 15.2614 35.4027 14.7574C35.5475 14.2533 35.538 13.7174 35.3754 13.2188Z" fill="#FFAC4A"/>
</svg>
